<svg class="svgblock" style="display:none;" id="svgA"  viewBox="0 0 1013 370" fill="none" xmlns="http://www.w3.org/2000/svg">
<rect id="RA6" x="833.5" y="2.5" width="177" height="365" fill="#ECD5A2" stroke="#364C3F" stroke-width="5"/>
<rect id="RA5" x="671.5" y="2.5" width="162" height="365" fill="#ECD5A2" stroke="#364C3F" stroke-width="5"/>
<rect id="RA4" x="509.5" y="2.5" width="162" height="365" fill="#ECD5A2" stroke="#364C3F" stroke-width="5"/>
<rect id="RA3" x="346.5" y="2.5" width="162" height="365" fill="#ECD5A2" stroke="#364C3F" stroke-width="5"/>
<rect id="RA2" x="184.5" y="2.5" width="162" height="365" fill="#ECD5A2" stroke="#364C3F" stroke-width="5"/>
<rect id="RA1" x="2.5" y="2.5" width="182" height="365" fill="#ECD5A2" stroke="#364C3F" stroke-width="5"/>
<rect x="69" y="218" width="875" height="91" fill="#1F2923"/>
<path d="M106.795 240.633L114.42 255.406L122.045 240.633H133.125L120.794 262.138L133.453 284H122.283L114.42 268.958L106.586 284H95.3872L108.076 262.138L95.7148 240.633H106.795ZM165.71 276.494V284H143.818V276.494H165.71ZM147.124 240.633V284H137.414V240.633H147.124Z" fill="white"/>
<path d="M280.87 276.494V284H258.978V276.494H280.87ZM262.284 240.633V284H252.574V240.633H262.284Z" fill="white"/>
<path d="M608.87 276.494V284H586.978V276.494H608.87ZM590.284 240.633V284H580.574V240.633H590.284Z" fill="white"/>
<path d="M770.87 276.494V284H748.978V276.494H770.87ZM752.284 240.633V284H742.574V240.633H752.284Z" fill="white"/>
<path d="M436.87 276.494V284H414.978V276.494H436.87ZM418.284 240.633V284H408.574V240.633H418.284ZM469.276 259.606V267.678H439.551V259.606H469.276ZM458.852 248.079V279.651H450.095V248.079H458.852Z" fill="white"/>
<path d="M890.87 276.494V284H868.978V276.494H890.87ZM872.284 240.633V284H862.574V240.633H872.284ZM923.276 259.606V267.678H893.551V259.606H923.276ZM912.852 248.079V279.651H904.095V248.079H912.852Z" fill="white"/>
</svg>


<svg class="svgblock" style="display:none;" id="svgB"  viewBox="0 0 1026 284" fill="none" xmlns="http://www.w3.org/2000/svg">
<rect id="RB8" x="900.5" y="2.5" width="123" height="279" fill="#ECD5A2" stroke="#364C3F" stroke-width="5"/>
<rect id="RB7" x="775.5" y="2.5" width="124" height="279" fill="#ECD5A2" stroke="#364C3F" stroke-width="5"/>
<rect id="RB6" x="650.5" y="2.5" width="124" height="279" fill="#ECD5A2" stroke="#364C3F" stroke-width="5"/>
<rect id="RB5" x="526.5" y="2.5" width="123" height="279" fill="#ECD5A2" stroke="#364C3F" stroke-width="5"/>
<rect id="RB4" x="376.5" y="2.5" width="123" height="279" fill="#ECD5A2" stroke="#364C3F" stroke-width="5"/>
<rect id="RB3" x="251.5" y="2.5" width="124" height="279" fill="#ECD5A2" stroke="#364C3F" stroke-width="5"/>
<rect id="RB2" x="126.5" y="2.5" width="124" height="279" fill="#ECD5A2" stroke="#364C3F" stroke-width="5"/>
<rect id="RB1" x="2.5" y="2.5" width="123" height="279" fill="#ECD5A2" stroke="#364C3F" stroke-width="5"/>
<rect x="565" y="147" width="414" height="91" fill="#1F2923"/>
<rect x="38" y="147" width="409" height="91" fill="#1F2923"/>
<path d="M58.7949 169.633L66.4199 184.406L74.0449 169.633H85.125L72.7939 191.138L85.4526 213H74.2832L66.4199 197.958L58.5864 213H47.3872L60.0757 191.138L47.7148 169.633H58.7949ZM117.71 205.494V213H95.8179V205.494H117.71ZM99.124 169.633V213H89.4141V169.633H99.124Z" fill="white"/>
<path d="M585.795 169.633L593.42 184.406L601.045 169.633H612.125L599.794 191.138L612.453 213H601.283L593.42 197.958L585.586 213H574.387L587.076 191.138L574.715 169.633H585.795ZM644.71 205.494V213H622.818V205.494H644.71ZM626.124 169.633V213H616.414V169.633H626.124Z" fill="white"/>
<path d="M203.87 205.494V213H181.978V205.494H203.87ZM185.284 169.633V213H175.574V169.633H185.284Z" fill="white"/>
<path d="M736.87 205.494V213H714.978V205.494H736.87ZM718.284 169.633V213H708.574V169.633H718.284Z" fill="white"/>
<path d="M316.87 205.494V213H294.978V205.494H316.87ZM298.284 169.633V213H288.574V169.633H298.284ZM349.276 188.606V196.678H319.551V188.606H349.276ZM338.852 177.079V208.651H330.095V177.079H338.852Z" fill="white"/>
<path d="M849.87 205.494V213H827.978V205.494H849.87ZM831.284 169.633V213H821.574V169.633H831.284ZM882.276 188.606V196.678H852.551V188.606H882.276ZM871.852 177.079V208.651H863.095V177.079H871.852Z" fill="white"/>
<path d="M417.062 201.562C417.062 200.828 416.953 200.173 416.734 199.597C416.516 199.001 416.119 198.455 415.543 197.958C414.967 197.462 414.153 196.966 413.101 196.469C412.048 195.953 410.668 195.427 408.96 194.891C407.014 194.255 405.158 193.54 403.391 192.746C401.643 191.932 400.084 190.989 398.714 189.917C397.344 188.844 396.262 187.593 395.468 186.164C394.693 184.734 394.306 183.066 394.306 181.16C394.306 179.313 394.713 177.645 395.527 176.156C396.341 174.667 397.483 173.396 398.953 172.343C400.422 171.271 402.15 170.457 404.135 169.901C406.121 169.325 408.305 169.037 410.688 169.037C413.865 169.037 416.655 169.603 419.058 170.735C421.48 171.847 423.367 173.416 424.717 175.441C426.067 177.446 426.742 179.78 426.742 182.44H417.092C417.092 181.269 416.844 180.236 416.347 179.343C415.871 178.429 415.136 177.715 414.143 177.198C413.17 176.682 411.949 176.424 410.479 176.424C409.05 176.424 407.848 176.642 406.875 177.079C405.922 177.496 405.198 178.072 404.701 178.807C404.225 179.541 403.986 180.346 403.986 181.219C403.986 181.914 404.165 182.55 404.522 183.125C404.9 183.681 405.436 184.208 406.131 184.704C406.846 185.181 407.719 185.637 408.752 186.074C409.785 186.511 410.966 186.928 412.296 187.325C414.62 188.06 416.675 188.874 418.462 189.768C420.269 190.661 421.788 191.674 423.019 192.806C424.25 193.938 425.174 195.218 425.789 196.648C426.424 198.078 426.742 199.696 426.742 201.503C426.742 203.429 426.365 205.137 425.61 206.626C424.876 208.115 423.803 209.386 422.394 210.438C421.004 211.471 419.336 212.255 417.39 212.792C415.444 213.328 413.269 213.596 410.867 213.596C408.682 213.596 406.528 213.318 404.403 212.762C402.279 212.186 400.353 211.312 398.625 210.141C396.917 208.969 395.547 207.48 394.515 205.673C393.502 203.846 392.996 201.682 392.996 199.18H402.706C402.706 200.49 402.894 201.602 403.271 202.516C403.649 203.409 404.185 204.134 404.88 204.69C405.595 205.246 406.458 205.643 407.471 205.881C408.484 206.12 409.616 206.239 410.867 206.239C412.316 206.239 413.488 206.04 414.381 205.643C415.295 205.226 415.97 204.66 416.407 203.945C416.844 203.23 417.062 202.436 417.062 201.562Z" fill="white"/>
<path d="M950.062 201.562C950.062 200.828 949.953 200.173 949.734 199.597C949.516 199.001 949.119 198.455 948.543 197.958C947.967 197.462 947.153 196.966 946.101 196.469C945.048 195.953 943.668 195.427 941.96 194.891C940.014 194.255 938.158 193.54 936.391 192.746C934.643 191.932 933.084 190.989 931.714 189.917C930.344 188.844 929.262 187.593 928.468 186.164C927.693 184.734 927.306 183.066 927.306 181.16C927.306 179.313 927.713 177.645 928.527 176.156C929.341 174.667 930.483 173.396 931.953 172.343C933.422 171.271 935.15 170.457 937.135 169.901C939.121 169.325 941.305 169.037 943.688 169.037C946.865 169.037 949.655 169.603 952.058 170.735C954.48 171.847 956.367 173.416 957.717 175.441C959.067 177.446 959.742 179.78 959.742 182.44H950.092C950.092 181.269 949.844 180.236 949.347 179.343C948.871 178.429 948.136 177.715 947.143 177.198C946.17 176.682 944.949 176.424 943.479 176.424C942.05 176.424 940.848 176.642 939.875 177.079C938.922 177.496 938.198 178.072 937.701 178.807C937.225 179.541 936.986 180.346 936.986 181.219C936.986 181.914 937.165 182.55 937.522 183.125C937.9 183.681 938.436 184.208 939.131 184.704C939.846 185.181 940.719 185.637 941.752 186.074C942.785 186.511 943.966 186.928 945.296 187.325C947.62 188.06 949.675 188.874 951.462 189.768C953.269 190.661 954.788 191.674 956.019 192.806C957.25 193.938 958.174 195.218 958.789 196.648C959.424 198.078 959.742 199.696 959.742 201.503C959.742 203.429 959.365 205.137 958.61 206.626C957.876 208.115 956.803 209.386 955.394 210.438C954.004 211.471 952.336 212.255 950.39 212.792C948.444 213.328 946.269 213.596 943.867 213.596C941.682 213.596 939.528 213.318 937.403 212.762C935.279 212.186 933.353 211.312 931.625 210.141C929.917 208.969 928.547 207.48 927.515 205.673C926.502 203.846 925.996 201.682 925.996 199.18H935.706C935.706 200.49 935.894 201.602 936.271 202.516C936.649 203.409 937.185 204.134 937.88 204.69C938.595 205.246 939.458 205.643 940.471 205.881C941.484 206.12 942.616 206.239 943.867 206.239C945.316 206.239 946.488 206.04 947.381 205.643C948.295 205.226 948.97 204.66 949.407 203.945C949.844 203.23 950.062 202.436 950.062 201.562Z" fill="white"/>
</svg>



<svg class="svgblock" style="display:none;" id="svgC"  viewBox="0 0 1013 370" fill="none" xmlns="http://www.w3.org/2000/svg">
<rect id="RC6" x="833.5" y="2.5" width="177" height="365" fill="#ECD5A2" stroke="#364C3F" stroke-width="5"/>
<rect id="RC5" x="671.5" y="2.5" width="162" height="365" fill="#ECD5A2" stroke="#364C3F" stroke-width="5"/>
<rect id="RC4" x="509.5" y="2.5" width="162" height="365" fill="#ECD5A2" stroke="#364C3F" stroke-width="5"/>
<rect id="RC3" x="346.5" y="2.5" width="162" height="365" fill="#ECD5A2" stroke="#364C3F" stroke-width="5"/>
<rect id="RC2" x="184.5" y="2.5" width="162" height="365" fill="#ECD5A2" stroke="#364C3F" stroke-width="5"/>
<rect id="RC1" x="2.5" y="2.5" width="182" height="365" fill="#ECD5A2" stroke="#364C3F" stroke-width="5"/>
<rect x="69" y="218" width="875" height="91" fill="#1F2923"/>
<path d="M106.795 240.633L114.42 255.406L122.045 240.633H133.125L120.794 262.138L133.453 284H122.283L114.42 268.958L106.586 284H95.3872L108.076 262.138L95.7148 240.633H106.795ZM165.71 276.494V284H143.818V276.494H165.71ZM147.124 240.633V284H137.414V240.633H147.124Z" fill="white"/>
<path d="M280.87 276.494V284H258.978V276.494H280.87ZM262.284 240.633V284H252.574V240.633H262.284Z" fill="white"/>
<path d="M608.87 276.494V284H586.978V276.494H608.87ZM590.284 240.633V284H580.574V240.633H590.284Z" fill="white"/>
<path d="M770.87 276.494V284H748.978V276.494H770.87ZM752.284 240.633V284H742.574V240.633H752.284Z" fill="white"/>
<path d="M436.87 276.494V284H414.978V276.494H436.87ZM418.284 240.633V284H408.574V240.633H418.284ZM469.276 259.606V267.678H439.551V259.606H469.276ZM458.852 248.079V279.651H450.095V248.079H458.852Z" fill="white"/>
<path d="M890.87 276.494V284H868.978V276.494H890.87ZM872.284 240.633V284H862.574V240.633H872.284ZM923.276 259.606V267.678H893.551V259.606H923.276ZM912.852 248.079V279.651H904.095V248.079H912.852Z" fill="white"/>
</svg>

<svg class="svgblock" style="display:none;" id="svgD"  viewBox="0 0 1026 284" fill="none" xmlns="http://www.w3.org/2000/svg">
<rect id="RD8" x="900.5" y="2.5" width="123" height="279" fill="#ECD5A2" stroke="#364C3F" stroke-width="5"/>
<rect id="RD7" x="775.5" y="2.5" width="124" height="279" fill="#ECD5A2" stroke="#364C3F" stroke-width="5"/>
<rect id="RD6" x="650.5" y="2.5" width="124" height="279" fill="#ECD5A2" stroke="#364C3F" stroke-width="5"/>
<rect id="RD5" x="526.5" y="2.5" width="123" height="279" fill="#ECD5A2" stroke="#364C3F" stroke-width="5"/>
<rect id="RD4" x="376.5" y="2.5" width="123" height="279" fill="#ECD5A2" stroke="#364C3F" stroke-width="5"/>
<rect id="RD3" x="251.5" y="2.5" width="124" height="279" fill="#ECD5A2" stroke="#364C3F" stroke-width="5"/>
<rect id="RD2" x="126.5" y="2.5" width="124" height="279" fill="#ECD5A2" stroke="#364C3F" stroke-width="5"/>
<rect id="RD1" x="2.5" y="2.5" width="123" height="279" fill="#ECD5A2" stroke="#364C3F" stroke-width="5"/>
<rect x="565" y="147" width="414" height="91" fill="#1F2923"/>
<rect x="38" y="147" width="409" height="91" fill="#1F2923"/>
<path d="M58.7949 169.633L66.4199 184.406L74.0449 169.633H85.125L72.7939 191.138L85.4526 213H74.2832L66.4199 197.958L58.5864 213H47.3872L60.0757 191.138L47.7148 169.633H58.7949ZM117.71 205.494V213H95.8179V205.494H117.71ZM99.124 169.633V213H89.4141V169.633H99.124Z" fill="white"/>
<path d="M585.795 169.633L593.42 184.406L601.045 169.633H612.125L599.794 191.138L612.453 213H601.283L593.42 197.958L585.586 213H574.387L587.076 191.138L574.715 169.633H585.795ZM644.71 205.494V213H622.818V205.494H644.71ZM626.124 169.633V213H616.414V169.633H626.124Z" fill="white"/>
<path d="M203.87 205.494V213H181.978V205.494H203.87ZM185.284 169.633V213H175.574V169.633H185.284Z" fill="white"/>
<path d="M736.87 205.494V213H714.978V205.494H736.87ZM718.284 169.633V213H708.574V169.633H718.284Z" fill="white"/>
<path d="M316.87 205.494V213H294.978V205.494H316.87ZM298.284 169.633V213H288.574V169.633H298.284ZM349.276 188.606V196.678H319.551V188.606H349.276ZM338.852 177.079V208.651H330.095V177.079H338.852Z" fill="white"/>
<path d="M849.87 205.494V213H827.978V205.494H849.87ZM831.284 169.633V213H821.574V169.633H831.284ZM882.276 188.606V196.678H852.551V188.606H882.276ZM871.852 177.079V208.651H863.095V177.079H871.852Z" fill="white"/>
<path d="M417.062 201.562C417.062 200.828 416.953 200.173 416.734 199.597C416.516 199.001 416.119 198.455 415.543 197.958C414.967 197.462 414.153 196.966 413.101 196.469C412.048 195.953 410.668 195.427 408.96 194.891C407.014 194.255 405.158 193.54 403.391 192.746C401.643 191.932 400.084 190.989 398.714 189.917C397.344 188.844 396.262 187.593 395.468 186.164C394.693 184.734 394.306 183.066 394.306 181.16C394.306 179.313 394.713 177.645 395.527 176.156C396.341 174.667 397.483 173.396 398.953 172.343C400.422 171.271 402.15 170.457 404.135 169.901C406.121 169.325 408.305 169.037 410.688 169.037C413.865 169.037 416.655 169.603 419.058 170.735C421.48 171.847 423.367 173.416 424.717 175.441C426.067 177.446 426.742 179.78 426.742 182.44H417.092C417.092 181.269 416.844 180.236 416.347 179.343C415.871 178.429 415.136 177.715 414.143 177.198C413.17 176.682 411.949 176.424 410.479 176.424C409.05 176.424 407.848 176.642 406.875 177.079C405.922 177.496 405.198 178.072 404.701 178.807C404.225 179.541 403.986 180.346 403.986 181.219C403.986 181.914 404.165 182.55 404.522 183.125C404.9 183.681 405.436 184.208 406.131 184.704C406.846 185.181 407.719 185.637 408.752 186.074C409.785 186.511 410.966 186.928 412.296 187.325C414.62 188.06 416.675 188.874 418.462 189.768C420.269 190.661 421.788 191.674 423.019 192.806C424.25 193.938 425.174 195.218 425.789 196.648C426.424 198.078 426.742 199.696 426.742 201.503C426.742 203.429 426.365 205.137 425.61 206.626C424.876 208.115 423.803 209.386 422.394 210.438C421.004 211.471 419.336 212.255 417.39 212.792C415.444 213.328 413.269 213.596 410.867 213.596C408.682 213.596 406.528 213.318 404.403 212.762C402.279 212.186 400.353 211.312 398.625 210.141C396.917 208.969 395.547 207.48 394.515 205.673C393.502 203.846 392.996 201.682 392.996 199.18H402.706C402.706 200.49 402.894 201.602 403.271 202.516C403.649 203.409 404.185 204.134 404.88 204.69C405.595 205.246 406.458 205.643 407.471 205.881C408.484 206.12 409.616 206.239 410.867 206.239C412.316 206.239 413.488 206.04 414.381 205.643C415.295 205.226 415.97 204.66 416.407 203.945C416.844 203.23 417.062 202.436 417.062 201.562Z" fill="white"/>
<path d="M950.062 201.562C950.062 200.828 949.953 200.173 949.734 199.597C949.516 199.001 949.119 198.455 948.543 197.958C947.967 197.462 947.153 196.966 946.101 196.469C945.048 195.953 943.668 195.427 941.96 194.891C940.014 194.255 938.158 193.54 936.391 192.746C934.643 191.932 933.084 190.989 931.714 189.917C930.344 188.844 929.262 187.593 928.468 186.164C927.693 184.734 927.306 183.066 927.306 181.16C927.306 179.313 927.713 177.645 928.527 176.156C929.341 174.667 930.483 173.396 931.953 172.343C933.422 171.271 935.15 170.457 937.135 169.901C939.121 169.325 941.305 169.037 943.688 169.037C946.865 169.037 949.655 169.603 952.058 170.735C954.48 171.847 956.367 173.416 957.717 175.441C959.067 177.446 959.742 179.78 959.742 182.44H950.092C950.092 181.269 949.844 180.236 949.347 179.343C948.871 178.429 948.136 177.715 947.143 177.198C946.17 176.682 944.949 176.424 943.479 176.424C942.05 176.424 940.848 176.642 939.875 177.079C938.922 177.496 938.198 178.072 937.701 178.807C937.225 179.541 936.986 180.346 936.986 181.219C936.986 181.914 937.165 182.55 937.522 183.125C937.9 183.681 938.436 184.208 939.131 184.704C939.846 185.181 940.719 185.637 941.752 186.074C942.785 186.511 943.966 186.928 945.296 187.325C947.62 188.06 949.675 188.874 951.462 189.768C953.269 190.661 954.788 191.674 956.019 192.806C957.25 193.938 958.174 195.218 958.789 196.648C959.424 198.078 959.742 199.696 959.742 201.503C959.742 203.429 959.365 205.137 958.61 206.626C957.876 208.115 956.803 209.386 955.394 210.438C954.004 211.471 952.336 212.255 950.39 212.792C948.444 213.328 946.269 213.596 943.867 213.596C941.682 213.596 939.528 213.318 937.403 212.762C935.279 212.186 933.353 211.312 931.625 210.141C929.917 208.969 928.547 207.48 927.515 205.673C926.502 203.846 925.996 201.682 925.996 199.18H935.706C935.706 200.49 935.894 201.602 936.271 202.516C936.649 203.409 937.185 204.134 937.88 204.69C938.595 205.246 939.458 205.643 940.471 205.881C941.484 206.12 942.616 206.239 943.867 206.239C945.316 206.239 946.488 206.04 947.381 205.643C948.295 205.226 948.97 204.66 949.407 203.945C949.844 203.23 950.062 202.436 950.062 201.562Z" fill="white"/>
</svg>

<svg class="svgblock" style="display:none;" id="svgE"   viewBox="0 0 1127 183" fill="none" xmlns="http://www.w3.org/2000/svg">
<rect id="RE4" x="241" y="1" width="72" height="180" fill="#ECD5A2" stroke="#364C3F" stroke-width="2"/>
<rect id="RE3" x="160.481" y="1" width="80.6225" height="179.898" fill="#ECD5A2" stroke="#364C3F" stroke-width="2"/>
<rect id="RE2" x="80.4207" y="1" width="80.6225" height="179.898" fill="#ECD5A2" stroke="#364C3F" stroke-width="2"/>
<rect id="RE1" x="1" y="1" width="79.982" height="179.898" fill="#ECD5A2" stroke="#364C3F" stroke-width="2"/>
<rect x="24.3391" y="94.1512" width="261.958" height="58.2841" fill="#1F2923"/>
<path d="M40.834 113.873L44.209 120.412L47.584 113.873H52.4883L47.0303 123.391L52.6333 133.068H47.6895L44.209 126.41L40.7417 133.068H35.7847L41.4009 123.391L35.9297 113.873H40.834ZM66.9111 129.746V133.068H57.2212V129.746H66.9111ZM58.6846 113.873V133.068H54.3867V113.873H58.6846Z" fill="white"/>
<path d="M129.78 129.746V133.068H120.09V129.746H129.78ZM121.554 113.873V133.068H117.256V113.873H121.554Z" fill="white"/>
<path d="M202.155 129.746V133.068H192.465V129.746H202.155ZM193.929 113.873V133.068H189.631V113.873H193.929ZM216.499 122.271V125.844H203.342V122.271H216.499ZM211.885 117.169V131.143H208.009V117.169H211.885Z" fill="white"/>
<path d="M266.479 128.006C266.479 127.68 266.431 127.39 266.334 127.135C266.237 126.872 266.062 126.63 265.807 126.41C265.552 126.191 265.191 125.971 264.726 125.751C264.26 125.523 263.649 125.29 262.893 125.052C262.032 124.771 261.21 124.455 260.428 124.103C259.654 123.743 258.964 123.325 258.358 122.851C257.751 122.376 257.272 121.823 256.921 121.19C256.578 120.557 256.407 119.819 256.407 118.975C256.407 118.157 256.587 117.419 256.947 116.76C257.308 116.101 257.813 115.538 258.463 115.073C259.114 114.598 259.878 114.238 260.757 113.991C261.636 113.737 262.603 113.609 263.658 113.609C265.064 113.609 266.299 113.86 267.362 114.361C268.435 114.853 269.27 115.547 269.867 116.444C270.465 117.331 270.764 118.364 270.764 119.542H266.492C266.492 119.023 266.382 118.566 266.163 118.171C265.952 117.766 265.626 117.45 265.187 117.221C264.756 116.993 264.216 116.879 263.565 116.879C262.933 116.879 262.401 116.975 261.97 117.169C261.548 117.353 261.228 117.608 261.008 117.933C260.797 118.259 260.691 118.615 260.691 119.001C260.691 119.309 260.771 119.59 260.929 119.845C261.096 120.091 261.333 120.324 261.641 120.544C261.957 120.755 262.344 120.957 262.801 121.15C263.258 121.344 263.781 121.528 264.37 121.704C265.398 122.029 266.308 122.389 267.099 122.785C267.898 123.18 268.571 123.629 269.116 124.13C269.661 124.631 270.069 125.198 270.342 125.83C270.623 126.463 270.764 127.179 270.764 127.979C270.764 128.832 270.597 129.588 270.263 130.247C269.938 130.906 269.463 131.469 268.839 131.934C268.224 132.391 267.485 132.739 266.624 132.976C265.763 133.213 264.8 133.332 263.737 133.332C262.77 133.332 261.816 133.209 260.876 132.963C259.936 132.708 259.083 132.321 258.318 131.802C257.562 131.284 256.956 130.625 256.499 129.825C256.051 129.016 255.827 128.058 255.827 126.951H260.125C260.125 127.531 260.208 128.023 260.375 128.427C260.542 128.823 260.779 129.144 261.087 129.39C261.403 129.636 261.786 129.812 262.234 129.917C262.682 130.023 263.183 130.075 263.737 130.075C264.378 130.075 264.897 129.988 265.292 129.812C265.697 129.627 265.996 129.377 266.189 129.06C266.382 128.744 266.479 128.392 266.479 128.006Z" fill="white"/>
<rect id="RE9" x="647.832" y="1" width="71.8615" height="181" fill="#ECD5A2" stroke="#364C3F" stroke-width="2"/>
<rect id="RE8" x="568.459" y="1" width="79.98" height="180.733" fill="#ECD5A2" stroke="#364C3F" stroke-width="2"/>
<rect id="RE7" x="488.184" y="1" width="79.98" height="180.733" fill="#ECD5A2" stroke="#364C3F" stroke-width="2"/>
<rect id="RE6" x="408.658" y="1" width="79.98" height="180.733" fill="#ECD5A2" stroke="#364C3F" stroke-width="2"/>
<rect id="RE5" x="319.314" y="1" width="89.7979" height="180.733" fill="#ECD5A2" stroke="#364C3F" stroke-width="2"/>
<rect x="348.08" y="93.1636" width="358.283" height="58.7818" fill="#1F2923"/>
<path d="M369.068 113.168L372.443 119.707L375.818 113.168H380.723L375.265 122.687L380.868 132.364H375.924L372.443 125.706L368.976 132.364H364.019L369.635 122.687L364.164 113.168H369.068ZM395.146 129.041V132.364H385.456V129.041H395.146ZM386.919 113.168V132.364H382.621V113.168H386.919Z" fill="white"/>
<path d="M454.655 129.041V132.364H444.965V129.041H454.655ZM446.429 113.168V132.364H442.131V113.168H446.429Z" fill="white"/>
<path d="M615.741 129.041V132.364H606.051V129.041H615.741ZM607.515 113.168V132.364H603.217V113.168H607.515Z" fill="white"/>
<path d="M531.233 129.041V132.364H521.543V129.041H531.233ZM523.007 113.168V132.364H518.709V113.168H523.007ZM545.577 121.566V125.139H532.42V121.566H545.577ZM540.963 116.464V130.439H537.087V116.464H540.963Z" fill="white"/>
<path d="M678.211 127.301C678.211 126.976 678.163 126.686 678.066 126.431C677.97 126.167 677.794 125.926 677.539 125.706C677.284 125.486 676.924 125.266 676.458 125.047C675.992 124.818 675.381 124.585 674.625 124.348C673.764 124.067 672.942 123.75 672.16 123.399C671.387 123.038 670.697 122.621 670.09 122.146C669.484 121.672 669.005 121.118 668.653 120.485C668.311 119.852 668.139 119.114 668.139 118.27C668.139 117.453 668.319 116.715 668.68 116.056C669.04 115.396 669.545 114.834 670.196 114.368C670.846 113.893 671.611 113.533 672.49 113.287C673.369 113.032 674.335 112.905 675.39 112.905C676.796 112.905 678.031 113.155 679.095 113.656C680.167 114.148 681.002 114.843 681.6 115.739C682.197 116.627 682.496 117.66 682.496 118.837H678.225C678.225 118.319 678.115 117.862 677.895 117.466C677.684 117.062 677.359 116.745 676.919 116.517C676.489 116.288 675.948 116.174 675.298 116.174C674.665 116.174 674.133 116.271 673.703 116.464C673.281 116.649 672.96 116.904 672.74 117.229C672.529 117.554 672.424 117.91 672.424 118.297C672.424 118.604 672.503 118.886 672.661 119.141C672.828 119.387 673.065 119.62 673.373 119.839C673.689 120.05 674.076 120.252 674.533 120.446C674.99 120.639 675.513 120.824 676.102 120.999C677.13 121.325 678.04 121.685 678.831 122.08C679.631 122.476 680.303 122.924 680.848 123.425C681.393 123.926 681.802 124.493 682.074 125.126C682.355 125.759 682.496 126.475 682.496 127.275C682.496 128.127 682.329 128.883 681.995 129.542C681.67 130.202 681.195 130.764 680.571 131.23C679.956 131.687 679.218 132.034 678.356 132.271C677.495 132.509 676.533 132.627 675.469 132.627C674.502 132.627 673.549 132.504 672.608 132.258C671.668 132.003 670.815 131.617 670.051 131.098C669.295 130.579 668.688 129.92 668.231 129.12C667.783 128.312 667.559 127.354 667.559 126.246H671.857C671.857 126.827 671.94 127.319 672.107 127.723C672.274 128.119 672.512 128.439 672.819 128.685C673.136 128.932 673.518 129.107 673.966 129.213C674.415 129.318 674.916 129.371 675.469 129.371C676.111 129.371 676.629 129.283 677.025 129.107C677.429 128.923 677.728 128.672 677.921 128.356C678.115 128.039 678.211 127.688 678.211 127.301Z" fill="white"/>
<rect id="RE14" x="1053.72" y="1" width="71.8615" height="181" fill="#ECD5A2" stroke="#364C3F" stroke-width="2"/>
<rect id="RE13" x="974.35" y="1" width="79.98" height="180.733" fill="#ECD5A2" stroke="#364C3F" stroke-width="2"/>
<rect id="RE12" x="894.074" y="1" width="79.98" height="180.733" fill="#ECD5A2" stroke="#364C3F" stroke-width="2"/>
<rect id="RE11" x="814.549" y="1" width="79.98" height="180.733" fill="#ECD5A2" stroke="#364C3F" stroke-width="2"/>
<rect id="RE10" x="725.205" y="1" width="89.7979" height="180.733" fill="#ECD5A2" stroke="#364C3F" stroke-width="2"/>
<rect x="753.971" y="93.1636" width="358.283" height="58.7818" fill="#1F2923"/>
<path d="M774.959 113.168L778.334 119.707L781.709 113.168H786.613L781.155 122.687L786.758 132.364H781.814L778.334 125.706L774.867 132.364H769.91L775.526 122.687L770.055 113.168H774.959ZM801.036 129.041V132.364H791.346V129.041H801.036ZM792.81 113.168V132.364H788.512V113.168H792.81Z" fill="white"/>
<path d="M860.546 129.041V132.364H850.856V129.041H860.546ZM852.319 113.168V132.364H848.021V113.168H852.319Z" fill="white"/>
<path d="M1021.63 129.041V132.364H1011.94V129.041H1021.63ZM1013.41 113.168V132.364H1009.11V113.168H1013.41Z" fill="white"/>
<path d="M937.124 129.041V132.364H927.434V129.041H937.124ZM928.897 113.168V132.364H924.6V113.168H928.897ZM951.468 121.566V125.139H938.311V121.566H951.468ZM946.854 116.464V130.439H942.978V116.464H946.854Z" fill="white"/>
<path d="M1084.1 127.301C1084.1 126.976 1084.05 126.686 1083.96 126.431C1083.86 126.167 1083.68 125.926 1083.43 125.706C1083.17 125.486 1082.81 125.266 1082.35 125.047C1081.88 124.818 1081.27 124.585 1080.52 124.348C1079.65 124.067 1078.83 123.75 1078.05 123.399C1077.28 123.038 1076.59 122.621 1075.98 122.146C1075.37 121.672 1074.9 121.118 1074.54 120.485C1074.2 119.852 1074.03 119.114 1074.03 118.27C1074.03 117.453 1074.21 116.715 1074.57 116.056C1074.93 115.396 1075.44 114.834 1076.09 114.368C1076.74 113.893 1077.5 113.533 1078.38 113.287C1079.26 113.032 1080.23 112.905 1081.28 112.905C1082.69 112.905 1083.92 113.155 1084.99 113.656C1086.06 114.148 1086.89 114.843 1087.49 115.739C1088.09 116.627 1088.39 117.66 1088.39 118.837H1084.12C1084.12 118.319 1084.01 117.862 1083.79 117.466C1083.57 117.062 1083.25 116.745 1082.81 116.517C1082.38 116.288 1081.84 116.174 1081.19 116.174C1080.56 116.174 1080.02 116.271 1079.59 116.464C1079.17 116.649 1078.85 116.904 1078.63 117.229C1078.42 117.554 1078.31 117.91 1078.31 118.297C1078.31 118.604 1078.39 118.886 1078.55 119.141C1078.72 119.387 1078.96 119.62 1079.26 119.839C1079.58 120.05 1079.97 120.252 1080.42 120.446C1080.88 120.639 1081.4 120.824 1081.99 120.999C1083.02 121.325 1083.93 121.685 1084.72 122.08C1085.52 122.476 1086.19 122.924 1086.74 123.425C1087.28 123.926 1087.69 124.493 1087.96 125.126C1088.25 125.759 1088.39 126.475 1088.39 127.275C1088.39 128.127 1088.22 128.883 1087.89 129.542C1087.56 130.202 1087.09 130.764 1086.46 131.23C1085.85 131.687 1085.11 132.034 1084.25 132.271C1083.39 132.509 1082.42 132.627 1081.36 132.627C1080.39 132.627 1079.44 132.504 1078.5 132.258C1077.56 132.003 1076.71 131.617 1075.94 131.098C1075.19 130.579 1074.58 129.92 1074.12 129.12C1073.67 128.312 1073.45 127.354 1073.45 126.246H1077.75C1077.75 126.827 1077.83 127.319 1078 127.723C1078.17 128.119 1078.4 128.439 1078.71 128.685C1079.03 128.932 1079.41 129.107 1079.86 129.213C1080.31 129.318 1080.81 129.371 1081.36 129.371C1082 129.371 1082.52 129.283 1082.92 129.107C1083.32 128.923 1083.62 128.672 1083.81 128.356C1084.01 128.039 1084.1 127.688 1084.1 127.301Z" fill="white"/>
</svg>

<svg class="svgblock" style="display:none;" id="svgF" viewBox="0 0 1135 254" fill="none" xmlns="http://www.w3.org/2000/svg">
<rect id="RF1" x="1134" y="252.901" width="73.5659" height="251.901" transform="rotate(180 1134 252.901)" fill="#ECD5A2" stroke="#364C3F" stroke-width="2"/>
<rect id="RF2" x="1060.45" y="252.901" width="73.5659" height="251.901" transform="rotate(180 1060.45 252.901)" fill="#ECD5A2" stroke="#364C3F" stroke-width="2"/>
<rect id="RF3" x="986.897" y="252.901" width="73.5659" height="251.901" transform="rotate(180 986.897 252.901)" fill="#ECD5A2" stroke="#364C3F" stroke-width="2"/>
<rect id="RF4" x="913.347" y="252.901" width="73.5659" height="251.901" transform="rotate(180 913.347 252.901)" fill="#ECD5A2" stroke="#364C3F" stroke-width="2"/>
<rect id="RF8" x="536.528" y="252.901" width="73.5659" height="251.901" transform="rotate(180 536.528 252.901)" fill="#ECD5A2" stroke="#364C3F" stroke-width="2"/>
<rect id="RF9" x="462.973" y="252.901" width="73.5659" height="251.901" transform="rotate(180 462.973 252.901)" fill="#ECD5A2" stroke="#364C3F" stroke-width="2"/>
<rect id="RF10" x="390.432" y="252.901" width="73.5659" height="251.901" transform="rotate(180 390.432 252.901)" fill="#ECD5A2" stroke="#364C3F" stroke-width="2"/>
<rect id="RF13" x="163.734" y="252.901" width="73.5659" height="251.901" transform="rotate(180 163.734 252.901)" fill="#ECD5A2" stroke="#364C3F" stroke-width="2"/>
<rect id="RF12" x="237.284" y="252.901" width="73.5659" height="251.901" transform="rotate(180 237.284 252.901)" fill="#ECD5A2" stroke="#364C3F" stroke-width="2"/>
<rect id="RF11" x="310.834" y="252.901" width="73.5659" height="251.901" transform="rotate(180 310.834 252.901)" fill="#ECD5A2" stroke="#364C3F" stroke-width="2"/>
<rect id="RF5" x="839.797" y="252.901" width="73.5659" height="251.901" transform="rotate(180 839.797 252.901)" fill="#ECD5A2" stroke="#364C3F" stroke-width="2"/>
<path id="RF14" d="M90.6865 252.901H41.6576L1.17342 0.999878H90.6865V252.901Z" fill="#ECD5A2" stroke="#364C3F" stroke-width="2"/>
<path id="RF7" d="M649.643 0.999878L596.664 252.901H536.511V0.999878H649.643Z" fill="#ECD5A2" stroke="#364C3F" stroke-width="2"/>
<path id="RF6" d="M766.247 252.901H709.116L655.637 0.999878H766.247V252.901Z" fill="#ECD5A2" stroke="#364C3F" stroke-width="2"/>
<rect x="1108.8" y="119.898" width="403.018" height="59.4452" transform="rotate(180 1108.8 119.898)" fill="#1F2923"/>
<rect x="594.954" y="119.898" width="256.924" height="59.4452" transform="rotate(180 594.954 119.898)" fill="#1F2923"/>
<rect x="288.662" y="119.898" width="248.864" height="59.4452" transform="rotate(180 288.662 119.898)" fill="#1F2923"/>
<path d="M59.2207 79.8047L62.5957 86.3438L65.9707 79.8047H70.875L65.417 89.3232L71.02 99H66.0762L62.5957 92.3423L59.1284 99H54.1714L59.7876 89.3232L54.3164 79.8047H59.2207ZM85.2979 95.6777V99H75.6079V95.6777H85.2979ZM77.0713 79.8047V99H72.7734V79.8047H77.0713Z" fill="white"/>
<path d="M135.106 95.6777V99H125.417V95.6777H135.106ZM126.88 79.8047V99H122.582V79.8047H126.88Z" fill="white"/>
<path d="M206.106 95.6777V99H196.417V95.6777H206.106ZM197.88 79.8047V99H193.582V79.8047H197.88Z" fill="white"/>
<path d="M263.106 95.6777V99H253.417V95.6777H263.106ZM254.88 79.8047V99H250.582V79.8047H254.88ZM277.45 88.2026V91.7754H264.293V88.2026H277.45ZM272.836 83.1006V97.0752H268.96V83.1006H272.836Z" fill="white"/>
<path d="M357.221 79.8047L360.596 86.3438L363.971 79.8047H368.875L363.417 89.3232L369.02 99H364.076L360.596 92.3423L357.128 99H352.171L357.788 89.3232L352.316 79.8047H357.221ZM383.298 95.6777V99H373.608V95.6777H383.298ZM375.071 79.8047V99H370.773V79.8047H375.071Z" fill="white"/>
<path d="M432.106 95.6777V99H422.417V95.6777H432.106ZM423.88 79.8047V99H419.582V79.8047H423.88Z" fill="white"/>
<path d="M506.106 95.6777V99H496.417V95.6777H506.106ZM497.88 79.8047V99H493.582V79.8047H497.88Z" fill="white"/>
<path d="M566.106 95.6777V99H556.417V95.6777H566.106ZM557.88 79.8047V99H553.582V79.8047H557.88ZM580.45 88.2026V91.7754H567.293V88.2026H580.45ZM575.836 83.1006V97.0752H571.96V83.1006H575.836Z" fill="white"/>
<path d="M728.221 79.8047L731.596 86.3438L734.971 79.8047H739.875L734.417 89.3232L740.02 99H735.076L731.596 92.3423L728.128 99H723.171L728.788 89.3232L723.316 79.8047H728.221ZM754.298 95.6777V99H744.608V95.6777H754.298ZM746.071 79.8047V99H741.773V79.8047H746.071Z" fill="white"/>
<path d="M808.106 95.6777V99H798.417V95.6777H808.106ZM799.88 79.8047V99H795.582V79.8047H799.88Z" fill="white"/>
<path d="M879.106 95.6777V99H869.417V95.6777H879.106ZM870.88 79.8047V99H866.582V79.8047H870.88ZM893.45 88.2026V91.7754H880.293V88.2026H893.45ZM888.836 83.1006V97.0752H884.96V83.1006H888.836Z" fill="white"/>
<path d="M956.106 95.6777V99H946.417V95.6777H956.106ZM947.88 79.8047V99H943.582V79.8047H947.88Z" fill="white"/>
<path d="M1030.11 95.6777V99H1020.42V95.6777H1030.11ZM1021.88 79.8047V99H1017.58V79.8047H1021.88Z" fill="white"/>
<path d="M1084.11 95.6777V99H1074.42V95.6777H1084.11ZM1075.88 79.8047V99H1071.58V79.8047H1075.88ZM1098.45 88.2026V91.7754H1085.29V88.2026H1098.45ZM1093.84 83.1006V97.0752H1089.96V83.1006H1093.84Z" fill="white"/>
</svg>



<svg class="svgblock" style="display:none;" id="svgG"  viewBox="0 0 1026 284" fill="none" xmlns="http://www.w3.org/2000/svg">
<rect id="RG8" x="900.5" y="2.5" width="123" height="279" fill="#ECD5A2" stroke="#364C3F" stroke-width="5"/>
<rect id="RG7" x="775.5" y="2.5" width="124" height="279" fill="#ECD5A2" stroke="#364C3F" stroke-width="5"/>
<rect id="RG6" x="650.5" y="2.5" width="124" height="279" fill="#ECD5A2" stroke="#364C3F" stroke-width="5"/>
<rect id="RG5" x="526.5" y="2.5" width="123" height="279" fill="#ECD5A2" stroke="#364C3F" stroke-width="5"/>
<rect id="RG4" x="376.5" y="2.5" width="123" height="279" fill="#ECD5A2" stroke="#364C3F" stroke-width="5"/>
<rect id="RG3" x="251.5" y="2.5" width="124" height="279" fill="#ECD5A2" stroke="#364C3F" stroke-width="5"/>
<rect id="RG2" x="126.5" y="2.5" width="124" height="279" fill="#ECD5A2" stroke="#364C3F" stroke-width="5"/>
<rect id="RG1" x="2.5" y="2.5" width="123" height="279" fill="#ECD5A2" stroke="#364C3F" stroke-width="5"/>
<rect x="565" y="147" width="414" height="91" fill="#1F2923"/>
<rect x="38" y="147" width="409" height="91" fill="#1F2923"/>
<path d="M58.7949 169.633L66.4199 184.406L74.0449 169.633H85.125L72.7939 191.138L85.4526 213H74.2832L66.4199 197.958L58.5864 213H47.3872L60.0757 191.138L47.7148 169.633H58.7949ZM117.71 205.494V213H95.8179V205.494H117.71ZM99.124 169.633V213H89.4141V169.633H99.124Z" fill="white"/>
<path d="M585.795 169.633L593.42 184.406L601.045 169.633H612.125L599.794 191.138L612.453 213H601.283L593.42 197.958L585.586 213H574.387L587.076 191.138L574.715 169.633H585.795ZM644.71 205.494V213H622.818V205.494H644.71ZM626.124 169.633V213H616.414V169.633H626.124Z" fill="white"/>
<path d="M203.87 205.494V213H181.978V205.494H203.87ZM185.284 169.633V213H175.574V169.633H185.284Z" fill="white"/>
<path d="M736.87 205.494V213H714.978V205.494H736.87ZM718.284 169.633V213H708.574V169.633H718.284Z" fill="white"/>
<path d="M316.87 205.494V213H294.978V205.494H316.87ZM298.284 169.633V213H288.574V169.633H298.284ZM349.276 188.606V196.678H319.551V188.606H349.276ZM338.852 177.079V208.651H330.095V177.079H338.852Z" fill="white"/>
<path d="M849.87 205.494V213H827.978V205.494H849.87ZM831.284 169.633V213H821.574V169.633H831.284ZM882.276 188.606V196.678H852.551V188.606H882.276ZM871.852 177.079V208.651H863.095V177.079H871.852Z" fill="white"/>
<path d="M417.062 201.562C417.062 200.828 416.953 200.173 416.734 199.597C416.516 199.001 416.119 198.455 415.543 197.958C414.967 197.462 414.153 196.966 413.101 196.469C412.048 195.953 410.668 195.427 408.96 194.891C407.014 194.255 405.158 193.54 403.391 192.746C401.643 191.932 400.084 190.989 398.714 189.917C397.344 188.844 396.262 187.593 395.468 186.164C394.693 184.734 394.306 183.066 394.306 181.16C394.306 179.313 394.713 177.645 395.527 176.156C396.341 174.667 397.483 173.396 398.953 172.343C400.422 171.271 402.15 170.457 404.135 169.901C406.121 169.325 408.305 169.037 410.688 169.037C413.865 169.037 416.655 169.603 419.058 170.735C421.48 171.847 423.367 173.416 424.717 175.441C426.067 177.446 426.742 179.78 426.742 182.44H417.092C417.092 181.269 416.844 180.236 416.347 179.343C415.871 178.429 415.136 177.715 414.143 177.198C413.17 176.682 411.949 176.424 410.479 176.424C409.05 176.424 407.848 176.642 406.875 177.079C405.922 177.496 405.198 178.072 404.701 178.807C404.225 179.541 403.986 180.346 403.986 181.219C403.986 181.914 404.165 182.55 404.522 183.125C404.9 183.681 405.436 184.208 406.131 184.704C406.846 185.181 407.719 185.637 408.752 186.074C409.785 186.511 410.966 186.928 412.296 187.325C414.62 188.06 416.675 188.874 418.462 189.768C420.269 190.661 421.788 191.674 423.019 192.806C424.25 193.938 425.174 195.218 425.789 196.648C426.424 198.078 426.742 199.696 426.742 201.503C426.742 203.429 426.365 205.137 425.61 206.626C424.876 208.115 423.803 209.386 422.394 210.438C421.004 211.471 419.336 212.255 417.39 212.792C415.444 213.328 413.269 213.596 410.867 213.596C408.682 213.596 406.528 213.318 404.403 212.762C402.279 212.186 400.353 211.312 398.625 210.141C396.917 208.969 395.547 207.48 394.515 205.673C393.502 203.846 392.996 201.682 392.996 199.18H402.706C402.706 200.49 402.894 201.602 403.271 202.516C403.649 203.409 404.185 204.134 404.88 204.69C405.595 205.246 406.458 205.643 407.471 205.881C408.484 206.12 409.616 206.239 410.867 206.239C412.316 206.239 413.488 206.04 414.381 205.643C415.295 205.226 415.97 204.66 416.407 203.945C416.844 203.23 417.062 202.436 417.062 201.562Z" fill="white"/>
<path d="M950.062 201.562C950.062 200.828 949.953 200.173 949.734 199.597C949.516 199.001 949.119 198.455 948.543 197.958C947.967 197.462 947.153 196.966 946.101 196.469C945.048 195.953 943.668 195.427 941.96 194.891C940.014 194.255 938.158 193.54 936.391 192.746C934.643 191.932 933.084 190.989 931.714 189.917C930.344 188.844 929.262 187.593 928.468 186.164C927.693 184.734 927.306 183.066 927.306 181.16C927.306 179.313 927.713 177.645 928.527 176.156C929.341 174.667 930.483 173.396 931.953 172.343C933.422 171.271 935.15 170.457 937.135 169.901C939.121 169.325 941.305 169.037 943.688 169.037C946.865 169.037 949.655 169.603 952.058 170.735C954.48 171.847 956.367 173.416 957.717 175.441C959.067 177.446 959.742 179.78 959.742 182.44H950.092C950.092 181.269 949.844 180.236 949.347 179.343C948.871 178.429 948.136 177.715 947.143 177.198C946.17 176.682 944.949 176.424 943.479 176.424C942.05 176.424 940.848 176.642 939.875 177.079C938.922 177.496 938.198 178.072 937.701 178.807C937.225 179.541 936.986 180.346 936.986 181.219C936.986 181.914 937.165 182.55 937.522 183.125C937.9 183.681 938.436 184.208 939.131 184.704C939.846 185.181 940.719 185.637 941.752 186.074C942.785 186.511 943.966 186.928 945.296 187.325C947.62 188.06 949.675 188.874 951.462 189.768C953.269 190.661 954.788 191.674 956.019 192.806C957.25 193.938 958.174 195.218 958.789 196.648C959.424 198.078 959.742 199.696 959.742 201.503C959.742 203.429 959.365 205.137 958.61 206.626C957.876 208.115 956.803 209.386 955.394 210.438C954.004 211.471 952.336 212.255 950.39 212.792C948.444 213.328 946.269 213.596 943.867 213.596C941.682 213.596 939.528 213.318 937.403 212.762C935.279 212.186 933.353 211.312 931.625 210.141C929.917 208.969 928.547 207.48 927.515 205.673C926.502 203.846 925.996 201.682 925.996 199.18H935.706C935.706 200.49 935.894 201.602 936.271 202.516C936.649 203.409 937.185 204.134 937.88 204.69C938.595 205.246 939.458 205.643 940.471 205.881C941.484 206.12 942.616 206.239 943.867 206.239C945.316 206.239 946.488 206.04 947.381 205.643C948.295 205.226 948.97 204.66 949.407 203.945C949.844 203.23 950.062 202.436 950.062 201.562Z" fill="white"/>
</svg>



<svg class="svgblock" style="display:none;" id="svgH"  viewBox="0 0 1110 405" fill="none" xmlns="http://www.w3.org/2000/svg">
<rect id="RH8" x="1108.75" y="403.075" width="118.261" height="402.075" transform="rotate(180 1108.75 403.075)" fill="#ECD5A2" stroke="#364C3F" stroke-width="2"/>
<rect id="RH7" x="991.701" y="403.075" width="118.261" height="402.075" transform="rotate(180 991.701 403.075)" fill="#ECD5A2" stroke="#364C3F" stroke-width="2"/>
<rect id="RH6" x="874.645" y="403.075" width="118.261" height="402.075" transform="rotate(180 874.645 403.075)" fill="#ECD5A2" stroke="#364C3F" stroke-width="2"/>
<rect id="RH3" x="390.74" y="403.075" width="118.261" height="402.075" transform="rotate(180 390.74 403.075)" fill="#ECD5A2" stroke="#364C3F" stroke-width="2"/>
<rect id="RH2" x="272.898" y="403.075" width="135.899" height="402.075" transform="rotate(180 272.898 403.075)" fill="#ECD5A2" stroke="#364C3F" stroke-width="2"/>
<rect id="RH1" x="136.898" y="403.075" width="135.899" height="402.075" transform="rotate(180 136.898 403.075)" fill="#ECD5A2" stroke="#364C3F" stroke-width="2"/>
<path id="RH5" d="M757.592 403.075H593.206L668.829 1H757.592V403.075Z" fill="#ECD5A2" stroke="#364C3F" stroke-width="2"/>
<path id="RH4" d="M390.998 403H542.841L484.135 1H390.998V403Z" fill="#ECD5A2" stroke="#364C3F" stroke-width="2"/>
<rect x="1096.81" y="341" width="436" height="95" transform="rotate(180 1096.81 341)" fill="#1F2923"/>
<rect x="487" y="340" width="435" height="94" transform="rotate(180 487 340)" fill="#1F2923"/>
<path d="M223.898 301.078V306H209.543V301.078H223.898ZM211.711 277.562V306H205.344V277.562H211.711Z" fill="white"/>
<path d="M99.0898 298.5C99.0898 298.018 99.0182 297.589 98.875 297.211C98.7318 296.82 98.4714 296.462 98.0938 296.137C97.7161 295.811 97.1823 295.486 96.4922 295.16C95.8021 294.822 94.8971 294.477 93.7773 294.125C92.5013 293.708 91.2839 293.24 90.125 292.719C88.9792 292.185 87.957 291.566 87.0586 290.863C86.1602 290.16 85.4505 289.34 84.9297 288.402C84.4219 287.465 84.168 286.371 84.168 285.121C84.168 283.91 84.4349 282.816 84.9688 281.84C85.5026 280.863 86.2513 280.03 87.2148 279.34C88.1784 278.637 89.3112 278.103 90.6133 277.738C91.9154 277.361 93.3477 277.172 94.9102 277.172C96.9935 277.172 98.8229 277.543 100.398 278.285C101.987 279.014 103.224 280.043 104.109 281.371C104.995 282.686 105.438 284.216 105.438 285.961H99.1094C99.1094 285.193 98.9466 284.516 98.6211 283.93C98.3086 283.331 97.8268 282.862 97.1758 282.523C96.5378 282.185 95.737 282.016 94.7734 282.016C93.8359 282.016 93.0482 282.159 92.4102 282.445C91.7852 282.719 91.3099 283.096 90.9844 283.578C90.6719 284.06 90.5156 284.587 90.5156 285.16C90.5156 285.616 90.6328 286.033 90.8672 286.41C91.1146 286.775 91.4661 287.12 91.9219 287.445C92.3906 287.758 92.9635 288.057 93.6406 288.344C94.3177 288.63 95.0924 288.904 95.9648 289.164C97.4883 289.646 98.8359 290.18 100.008 290.766C101.193 291.352 102.189 292.016 102.996 292.758C103.803 293.5 104.409 294.34 104.812 295.277C105.229 296.215 105.438 297.276 105.438 298.461C105.438 299.724 105.19 300.844 104.695 301.82C104.214 302.797 103.51 303.63 102.586 304.32C101.674 304.997 100.581 305.512 99.3047 305.863C98.0286 306.215 96.6029 306.391 95.0273 306.391C93.5951 306.391 92.1823 306.208 90.7891 305.844C89.3958 305.466 88.1328 304.893 87 304.125C85.8802 303.357 84.9818 302.38 84.3047 301.195C83.6406 299.997 83.3086 298.578 83.3086 296.938H89.6758C89.6758 297.797 89.7995 298.526 90.0469 299.125C90.2943 299.711 90.6458 300.186 91.1016 300.551C91.5703 300.915 92.1367 301.176 92.8008 301.332C93.4648 301.488 94.207 301.566 95.0273 301.566C95.9779 301.566 96.7461 301.436 97.332 301.176C97.931 300.902 98.3737 300.531 98.6602 300.062C98.9466 299.594 99.0898 299.073 99.0898 298.5Z" fill="white"/>
<path d="M334.898 301.078V306H320.543V301.078H334.898ZM322.711 277.562V306H316.344V277.562H322.711ZM356.148 290.004V295.297H336.656V290.004H356.148ZM349.312 282.445V303.148H343.57V282.445H349.312Z" fill="white"/>
<path d="M426.734 277.562L431.734 287.25L436.734 277.562H444L435.914 291.664L444.215 306H436.891L431.734 296.137L426.598 306H419.254L427.574 291.664L419.469 277.562H426.734ZM465.367 301.078V306H451.012V301.078H465.367ZM453.18 277.562V306H446.812V277.562H453.18Z" fill="white"/>
<path d="M823.898 301.078V306H809.543V301.078H823.898ZM811.711 277.562V306H805.344V277.562H811.711ZM845.148 290.004V295.297H825.656V290.004H845.148ZM838.312 282.445V303.148H832.57V282.445H838.312Z" fill="white"/>
<path d="M693.734 277.562L698.734 287.25L703.734 277.562H711L702.914 291.664L711.215 306H703.891L698.734 296.137L693.598 306H686.254L694.574 291.664L686.469 277.562H693.734ZM732.367 301.078V306H718.012V301.078H732.367ZM720.18 277.562V306H713.812V277.562H720.18Z" fill="white"/>
<path d="M947.705 301.078V306H933.35V301.078H947.705ZM935.518 277.562V306H929.15V277.562H935.518Z" fill="white"/>
<path d="M1049.9 301.078V306H1035.54V301.078H1049.9ZM1037.71 277.562V306H1031.34V277.562H1037.71ZM1071.15 290.004V295.297H1051.66V290.004H1071.15ZM1064.31 282.445V303.148H1058.57V282.445H1064.31Z" fill="white"/>
</svg>

<svg class="svgblock" style="display:none;" id="svgL"  viewBox="0 0 1108 405" fill="none" xmlns="http://www.w3.org/2000/svg">
<rect id="RL8" x="1107" y="403.075" width="118.261" height="402.075" transform="rotate(180 1107 403.075)" fill="#ECD5A2" stroke="#364C3F" stroke-width="2"/>
<rect id="RL7" x="989.947" y="403.075" width="118.261" height="402.075" transform="rotate(180 989.947 403.075)" fill="#ECD5A2" stroke="#364C3F" stroke-width="2"/>
<rect id="RL6" x="872.893" y="403.075" width="118.261" height="402.075" transform="rotate(180 872.893 403.075)" fill="#ECD5A2" stroke="#364C3F" stroke-width="2"/>
<rect id="RL5" x="755.838" y="403.075" width="118.261" height="402.075" transform="rotate(180 755.838 403.075)" fill="#ECD5A2" stroke="#364C3F" stroke-width="2"/>
<rect id="RL2" x="254.742" y="403.075" width="118.261" height="402.075" transform="rotate(180 254.742 403.075)" fill="#ECD5A2" stroke="#364C3F" stroke-width="2"/>
<rect id="RL1" x="136.9" y="403.075" width="135.899" height="402.075" transform="rotate(180 136.9 403.075)" fill="#ECD5A2" stroke="#364C3F" stroke-width="2"/>
<path id="RL4" d="M638.785 403.075H546.792L461.43 1H638.785V403.075Z" fill="#ECD5A2" stroke="#364C3F" stroke-width="2"/>
<path id="RL3" d="M255 403H333.603L406.801 1H255V403Z" fill="#ECD5A2" stroke="#364C3F" stroke-width="2"/>
<rect x="1071.12" y="190.813" width="529.146" height="94.605" transform="rotate(180 1071.12 190.813)" fill="#1F2923"/>
<rect x="342.994" y="190.463" width="308.318" height="94.7052" transform="rotate(180 342.994 190.463)" fill="#1F2923"/>
<path d="M72.7344 127.562L77.7344 137.25L82.7344 127.562H90L81.9141 141.664L90.2148 156H82.8906L77.7344 146.137L72.5977 156H65.2539L73.5742 141.664L65.4688 127.562H72.7344ZM111.367 151.078V156H97.0117V151.078H111.367ZM99.1797 127.562V156H92.8125V127.562H99.1797Z" fill="white"/>
<path d="M206.898 151.078V156H192.543V151.078H206.898ZM194.711 127.562V156H188.344V127.562H194.711Z" fill="white"/>
<path d="M301.09 148.5C301.09 148.018 301.018 147.589 300.875 147.211C300.732 146.82 300.471 146.462 300.094 146.137C299.716 145.811 299.182 145.486 298.492 145.16C297.802 144.822 296.897 144.477 295.777 144.125C294.501 143.708 293.284 143.24 292.125 142.719C290.979 142.185 289.957 141.566 289.059 140.863C288.16 140.16 287.451 139.34 286.93 138.402C286.422 137.465 286.168 136.371 286.168 135.121C286.168 133.91 286.435 132.816 286.969 131.84C287.503 130.863 288.251 130.03 289.215 129.34C290.178 128.637 291.311 128.103 292.613 127.738C293.915 127.361 295.348 127.172 296.91 127.172C298.993 127.172 300.823 127.543 302.398 128.285C303.987 129.014 305.224 130.043 306.109 131.371C306.995 132.686 307.438 134.216 307.438 135.961H301.109C301.109 135.193 300.947 134.516 300.621 133.93C300.309 133.331 299.827 132.862 299.176 132.523C298.538 132.185 297.737 132.016 296.773 132.016C295.836 132.016 295.048 132.159 294.41 132.445C293.785 132.719 293.31 133.096 292.984 133.578C292.672 134.06 292.516 134.587 292.516 135.16C292.516 135.616 292.633 136.033 292.867 136.41C293.115 136.775 293.466 137.12 293.922 137.445C294.391 137.758 294.964 138.057 295.641 138.344C296.318 138.63 297.092 138.904 297.965 139.164C299.488 139.646 300.836 140.18 302.008 140.766C303.193 141.352 304.189 142.016 304.996 142.758C305.803 143.5 306.409 144.34 306.812 145.277C307.229 146.215 307.438 147.276 307.438 148.461C307.438 149.724 307.19 150.844 306.695 151.82C306.214 152.797 305.51 153.63 304.586 154.32C303.674 154.997 302.581 155.512 301.305 155.863C300.029 156.215 298.603 156.391 297.027 156.391C295.595 156.391 294.182 156.208 292.789 155.844C291.396 155.466 290.133 154.893 289 154.125C287.88 153.357 286.982 152.38 286.305 151.195C285.641 149.997 285.309 148.578 285.309 146.938H291.676C291.676 147.797 291.799 148.526 292.047 149.125C292.294 149.711 292.646 150.186 293.102 150.551C293.57 150.915 294.137 151.176 294.801 151.332C295.465 151.488 296.207 151.566 297.027 151.566C297.978 151.566 298.746 151.436 299.332 151.176C299.931 150.902 300.374 150.531 300.66 150.062C300.947 149.594 301.09 149.073 301.09 148.5Z" fill="white"/>
<path d="M602.09 148.5C602.09 148.018 602.018 147.589 601.875 147.211C601.732 146.82 601.471 146.462 601.094 146.137C600.716 145.811 600.182 145.486 599.492 145.16C598.802 144.822 597.897 144.477 596.777 144.125C595.501 143.708 594.284 143.24 593.125 142.719C591.979 142.185 590.957 141.566 590.059 140.863C589.16 140.16 588.451 139.34 587.93 138.402C587.422 137.465 587.168 136.371 587.168 135.121C587.168 133.91 587.435 132.816 587.969 131.84C588.503 130.863 589.251 130.03 590.215 129.34C591.178 128.637 592.311 128.103 593.613 127.738C594.915 127.361 596.348 127.172 597.91 127.172C599.993 127.172 601.823 127.543 603.398 128.285C604.987 129.014 606.224 130.043 607.109 131.371C607.995 132.686 608.438 134.216 608.438 135.961H602.109C602.109 135.193 601.947 134.516 601.621 133.93C601.309 133.331 600.827 132.862 600.176 132.523C599.538 132.185 598.737 132.016 597.773 132.016C596.836 132.016 596.048 132.159 595.41 132.445C594.785 132.719 594.31 133.096 593.984 133.578C593.672 134.06 593.516 134.587 593.516 135.16C593.516 135.616 593.633 136.033 593.867 136.41C594.115 136.775 594.466 137.12 594.922 137.445C595.391 137.758 595.964 138.057 596.641 138.344C597.318 138.63 598.092 138.904 598.965 139.164C600.488 139.646 601.836 140.18 603.008 140.766C604.193 141.352 605.189 142.016 605.996 142.758C606.803 143.5 607.409 144.34 607.812 145.277C608.229 146.215 608.438 147.276 608.438 148.461C608.438 149.724 608.19 150.844 607.695 151.82C607.214 152.797 606.51 153.63 605.586 154.32C604.674 154.997 603.581 155.512 602.305 155.863C601.029 156.215 599.603 156.391 598.027 156.391C596.595 156.391 595.182 156.208 593.789 155.844C592.396 155.466 591.133 154.893 590 154.125C588.88 153.357 587.982 152.38 587.305 151.195C586.641 149.997 586.309 148.578 586.309 146.938H592.676C592.676 147.797 592.799 148.526 593.047 149.125C593.294 149.711 593.646 150.186 594.102 150.551C594.57 150.915 595.137 151.176 595.801 151.332C596.465 151.488 597.207 151.566 598.027 151.566C598.978 151.566 599.746 151.436 600.332 151.176C600.931 150.902 601.374 150.531 601.66 150.062C601.947 149.594 602.09 149.073 602.09 148.5Z" fill="white"/>
<path d="M707.898 151.078V156H693.543V151.078H707.898ZM695.711 127.562V156H689.344V127.562H695.711Z" fill="white"/>
<path d="M817.898 151.078V156H803.543V151.078H817.898ZM805.711 127.562V156H799.344V127.562H805.711ZM839.148 140.004V145.297H819.656V140.004H839.148ZM832.312 132.445V153.148H826.57V132.445H832.312Z" fill="white"/>
<path d="M943.898 151.078V156H929.543V151.078H943.898ZM931.711 127.562V156H925.344V127.562H931.711Z" fill="white"/>
<path d="M1013.73 127.562L1018.73 137.25L1023.73 127.562H1031L1022.91 141.664L1031.21 156H1023.89L1018.73 146.137L1013.6 156H1006.25L1014.57 141.664L1006.47 127.562H1013.73ZM1052.37 151.078V156H1038.01V151.078H1052.37ZM1040.18 127.562V156H1033.81V127.562H1040.18Z" fill="white"/>
</svg>


